Coordinates
version=1
nRows=22
nColumns=24
inDegrees=yes

Units are S.I. units (second, meters, Newtons, ...)
Angles are in degrees.

endheader
time	pelvis_tilt	pelvis_list	pelvis_rotation	pelvis_tx	pelvis_ty	pelvis_tz	hip_flexion_r	hip_adduction_r	hip_rotation_r	knee_angle_r	ankle_angle_r	subtalar_angle_r	mtp_angle_r	hip_flexion_l	hip_adduction_l	hip_rotation_l	knee_angle_l	ankle_angle_l	subtalar_angle_l	mtp_angle_l	lumbar_extension	lumbar_bending	lumbar_rotation
      1.46633333	      1.43123199	      5.11960272	     -3.02598776	      0.31629076	      1.02595955	      0.30270431	     18.15907882	     -8.55774814	     -5.90351468	    -72.11603233	     -2.61739540	     -5.48152053	      2.81792641	      8.21854902	      9.57715289	      2.70704092	    -14.12741052	      5.20802354	    -11.30275493	     -0.36980831	     -5.24900238	     -6.55089004	      5.08353355
      1.47050000	      1.42749112	      4.98815283	     -2.96109878	      0.32098196	      1.02676102	      0.30230564	     18.74371931	     -8.39181189	     -5.95266167	    -71.85097687	     -2.16862040	     -5.37098671	      2.82126253	      7.75985358	      9.47363879	      2.82531659	    -13.81447123	      5.28036386	    -11.27342860	     -0.37440927	     -5.33787058	     -6.37120320	      4.96024034
      1.47466667	      1.44472101	      4.84632252	     -2.88915443	      0.32567034	      1.02758676	      0.30190011	     19.28407883	     -8.21849407	     -6.01891143	    -71.52073164	     -1.75428371	     -5.28695750	      2.82774669	      7.27486011	      9.35843516	      2.94611429	    -13.49440473	      5.35204602	    -11.23591833	     -0.37889105	     -5.44744354	     -6.18516914	      4.84150775
      1.47883333	      1.48979323	      4.72431023	     -2.80941292	      0.33035449	      1.02840726	      0.30147678	     19.78209609	     -8.07587193	     -6.09276274	    -71.14697974	     -1.34758451	     -5.15969811	      2.83435505	      6.75132904	      9.26786505	      3.08768697	    -13.15124166	      5.42483265	    -11.21523733	     -0.38834261	     -5.58067653	     -6.02535993	      4.64934133
      1.48300000	      1.49704639	      4.58271907	     -2.71075168	      0.33501277	      1.02914682	      0.30104314	     20.30097508	     -7.90593529	     -6.18169957	    -70.71434243	     -0.96327546	     -5.11864762	      2.84238593	      6.28413623	      9.15141367	      3.22764905	    -12.84173093	      5.49074300	    -11.18207863	     -0.39656761	     -5.68468369	     -5.83855750	      4.51284428
      1.48716667	      1.51474651	      4.45358821	     -2.60733513	      0.33966527	      1.02985707	      0.30060286	     20.79516793	     -7.75449150	     -6.27508950	    -70.23466756	     -0.58895055	     -5.08037673	      2.85152566	      5.80503861	      9.04703051	      3.36774297	    -12.52591448	      5.56022050	    -11.14163910	     -0.40445280	     -5.79687984	     -5.66803953	      4.36702142
      1.49133333	      1.53952455	      4.31986125	     -2.49714363	      0.34434793	      1.03055741	      0.30014860	     21.25776966	     -7.60229106	     -6.38334313	    -69.69311441	     -0.23694515	     -5.08295981	      2.86014556	      5.31541012	      8.93546916	      3.49096807	    -12.20561106	      5.63566688	    -11.09239970	     -0.40992587	     -5.87530189	     -5.48150081	      4.23924605
      1.49550000	      1.59275060	      4.20695035	     -2.38072312	      0.34897555	      1.03125149	      0.29968681	     21.68196246	     -7.47663402	     -6.48511657	    -69.11240556	      0.09510390	     -5.02700981	      2.87015424	      4.79271189	      8.85042027	      3.67620796	    -11.87158882	      5.70137305	    -11.08192910	     -0.42623104	     -6.06078455	     -5.33335037	      3.96300990
      1.49966667	      1.62722183	      4.07276665	     -2.25140585	      0.35361556	      1.03188860	      0.29922089	     22.09975015	     -7.32692148	     -6.60724829	    -68.46646974	      0.41460219	     -5.05971974	      2.87881637	      4.29990066	      8.73644367	      3.83864369	    -11.56040991	      5.77033928	    -11.05045062	     -0.44201418	     -6.18765597	     -5.15434370	      3.77220087
      1.50383333	      1.62355656	      3.95677905	     -2.11418822	      0.35824307	      1.03242325	      0.29876078	     22.54766771	     -7.19358216	     -6.72350547	    -67.77976769	      0.74503676	     -5.11794410	      2.88654029	      3.86401743	      8.63578765	      3.98264684	    -11.27561447	      5.83660156	    -10.99603174	     -0.45074858	     -6.27070183	     -5.00162484	      3.64868163
      1.50800000	      1.68304691	      3.84071912	     -1.98130062	      0.36288784	      1.03302768	      0.29829318	     22.90368251	     -7.06647472	     -6.84372092	    -67.03067365	      1.02053911	     -5.17987070	      2.89247807	      3.34161684	      8.53793933	      4.15226536	    -10.95253828	      5.91328524	    -10.96228480	     -0.46788765	     -6.42453351	     -4.83815928	      3.40109197
      1.51216667	      1.66299177	      3.72861710	     -1.83198780	      0.36751511	      1.03345306	      0.29783484	     23.33243323	     -6.93689332	     -6.96625171	    -66.24158948	      1.32412861	     -5.27441468	      2.89740476	      2.93357313	      8.43614202	      4.30243766	    -10.68548558	      5.98794995	    -10.90860841	     -0.47681060	     -6.48542238	     -4.68974147	      3.26708949
      1.51633333	      1.72769699	      3.62292515	     -1.69212605	      0.37216092	      1.03398959	      0.29737499	     23.64480786	     -6.81998078	     -7.08756528	    -65.38783386	      1.56603254	     -5.38652707	      2.89860201	      2.41327246	      8.34349795	      4.47197120	    -10.37391222	      6.07085417	    -10.86693602	     -0.49169855	     -6.64425144	     -4.53684523	      3.02965046
      1.52050000	      1.70479184	      3.52920084	     -1.54375124	      0.37681619	      1.03432834	      0.29691689	     24.04134487	     -6.71075295	     -7.20406644	    -64.50338275	      1.86589117	     -5.52084743	      2.90081797	      2.00882245	      8.25653334	      4.60862940	    -10.10325827	      6.14478664	    -10.79411622	     -0.49651825	     -6.67358049	     -4.38752501	      2.92772839
      1.52466667	      1.75023927	      3.42243185	     -1.38911111	      0.38145724	      1.03476854	      0.29647622	     24.33004365	     -6.58587703	     -7.32579355	    -63.53408258	      2.04244625	     -5.68983626	      2.89354971	      1.52641660	      8.15571206	      4.79287197	     -9.82725698	      6.23903896	    -10.76384941	     -0.51148164	     -6.82678972	     -4.25845660	      2.64491163
      1.52883333	      1.75760163	      3.32908261	     -1.23352042	      0.38611875	      1.03509654	      0.29603495	     24.64530093	     -6.47407270	     -7.44228305	    -62.52822108	      2.26133608	     -5.86853335	      2.88430580	      1.09198858	      8.06537119	      4.95807918	     -9.56284620	      6.32247458	    -10.71807202	     -0.52573534	     -6.91146686	     -4.12608004	      2.44572964
      1.53300000	      1.74064667	      3.24260703	     -1.07307255	      0.39077207	      1.03533256	      0.29560631	     24.96964555	     -6.36572439	     -7.55327059	    -61.47814513	      2.49367087	     -6.05504349	      2.87537919	      0.69936300	      7.97848992	      5.11016114	     -9.32827093	      6.41056370	    -10.66134924	     -0.53409862	     -6.96875378	     -4.00424363	      2.30342690
      1.53716667	      1.73071516	      3.15627247	     -0.91386733	      0.39545529	      1.03556429	      0.29519245	     25.25973245	     -6.25500600	     -7.66145198	    -60.36511529	      2.67137258	     -6.27415970	      2.86086087	      0.29305133	      7.88912036	      5.27192416	     -9.08408738	      6.50699057	    -10.60382462	     -0.54243460	     -7.02905540	     -3.88272998	      2.12646708
      1.54133333	      1.73194276	      3.08464516	     -0.75917010	      0.40014120	      1.03575747	      0.29479492	     25.52071780	     -6.15557086	     -7.75698313	    -59.20617920	      2.82827968	     -6.51229791	      2.84097449	     -0.12287738	      7.81373158	      5.42943733	     -8.84305661	      6.60595485	    -10.55030643	     -0.55123370	     -7.10028603	     -3.77752309	      1.93763190
      1.54550000	      1.72717785	      3.01573971	     -0.60436214	      0.40484608	      1.03591921	      0.29441720	     25.76320195	     -6.05540840	     -7.84828487	    -57.99018395	      2.95988691	     -6.76442535	      2.81437861	     -0.53221480	      7.73798306	      5.58917360	     -8.60313985	      6.70434902	    -10.50137010	     -0.56131432	     -7.16327885	     -3.67823805	      1.74134458
      1.54966667	      1.72618887	      2.96605717	     -0.46158919	      0.40956009	      1.03602115	      0.29406627	     25.98827207	     -5.96815540	     -7.91775081	    -56.73399316	      3.05103344	     -7.04390659	      2.77227336	     -0.94883732	      7.68158274	      5.74447679	     -8.35451218	      6.80578071	    -10.45999898	     -0.57593127	     -7.22058349	     -3.60752464	      1.51661989
      1.55383333	      1.68395475	      2.89787168	     -0.29580887	      0.41428387	      1.03604271	      0.29370879	     26.22395231	     -5.86180050	     -8.00215945	    -55.41667904	      3.18461835	     -7.29524720	      2.73759537	     -1.30014524	      7.60168067	      5.90859468	     -8.15511873	      6.91274923	    -10.41140767	     -0.58497893	     -7.23905591	     -3.50563677	      1.36987794
